<?xml version="1.0" encoding="utf-8"?>
<!-- Generator: Adobe Illustrator 25.3.0, SVG Export Plug-In . SVG Version: 6.00 Build 0)  -->
<svg version="1.1" id="Layer_1" xmlns="http://www.w3.org/2000/svg" xmlns:xlink="http://www.w3.org/1999/xlink" x="0px" y="0px"
	 viewBox="0 0 300 69" style="enable-background:new 0 0 300 69;" xml:space="preserve">
<style type="text/css">
	.st0{fill:#FFFFFF;}
</style>
<rect y="-113" width="300" height="300"/>
<g id="e21c521d-2ec1-4ec0-8328-04057421904b" transform="matrix(1.505711754203242,0,0,1.505711754203242,183.7507586060723,138.9819542457976)">
	<path class="st0" d="M7.4-64.5l-0.8-1.9H3.4l-0.8,1.9H0.1l3.2-9.2h3.3l3.4,9.2H7.4z M3.9-68.2h2c0,0,0-0.1,0-0.2
		c0-0.1-0.1-0.3-0.1-0.5c0-0.2-0.1-0.4-0.2-0.7c-0.1-0.3-0.1-0.5-0.2-0.8c-0.1-0.3-0.1-0.5-0.2-0.8c-0.1-0.2-0.1-0.5-0.2-0.6l0,0
		c-0.2,0.7-0.4,1.3-0.5,1.8l0,0c-0.1,0.2-0.1,0.4-0.2,0.7c-0.1,0.2-0.1,0.4-0.2,0.6C4-68.6,4-68.5,4-68.4
		C3.9-68.3,3.9-68.2,3.9-68.2L3.9-68.2z M13.9-72L13.9-72c0.4,0,0.9,0.1,1.4,0.2c0.5,0.1,0.9,0.3,1.4,0.6l0,0l-0.8,1.4
		c-0.1,0-0.2-0.1-0.4-0.2c-0.2-0.1-0.3-0.1-0.5-0.2c-0.2-0.1-0.4-0.1-0.6-0.2c-0.2,0-0.4-0.1-0.6,0c-0.2,0-0.3,0.1-0.4,0.2
		c-0.1,0.1-0.2,0.2-0.2,0.4l0,0c0,0.1,0.1,0.3,0.3,0.3c0.2,0.1,0.5,0.2,0.8,0.3l0,0c0.3,0.1,0.6,0.2,0.9,0.3
		c0.3,0.1,0.6,0.3,0.8,0.5c0.2,0.2,0.4,0.4,0.6,0.7c0.2,0.3,0.2,0.6,0.2,1l0,0c0,0.4-0.1,0.8-0.2,1.1c-0.2,0.3-0.4,0.5-0.6,0.7
		c-0.3,0.2-0.6,0.3-0.9,0.4c-0.4,0.1-0.7,0.1-1.1,0.1l0,0c-0.5,0-1.1-0.1-1.7-0.2c-0.6-0.1-1.1-0.4-1.5-0.8l0,0l0.9-1.5
		c0.1,0.1,0.3,0.2,0.4,0.3c0.2,0.1,0.4,0.2,0.6,0.3c0.2,0.1,0.4,0.1,0.6,0.2c0.2,0,0.4,0,0.6,0c0.2,0,0.3-0.1,0.4-0.1
		c0.1-0.1,0.2-0.2,0.2-0.3l0,0c0-0.2-0.1-0.4-0.2-0.5c-0.2-0.1-0.4-0.2-0.6-0.3c-0.3-0.1-0.5-0.2-0.8-0.3c-0.3-0.1-0.6-0.2-0.8-0.4
		c-0.2-0.2-0.5-0.4-0.6-0.6C11-69,11-69.3,11-69.7l0,0c0-0.4,0.1-0.7,0.2-1c0.2-0.3,0.4-0.5,0.7-0.7c0.3-0.2,0.6-0.3,0.9-0.4
		C13.2-72,13.6-72,13.9-72z M23.6-71.8h2.1v6.6c0,0.5-0.1,0.9-0.2,1.3c-0.1,0.4-0.4,0.8-0.7,1.1c-0.3,0.3-0.8,0.6-1.4,0.8
		c-0.6,0.2-1.3,0.3-2.2,0.3l0,0c-0.4,0-0.7,0-1-0.1c-0.3-0.1-0.6-0.1-0.9-0.2l0,0c-0.3-0.1-0.6-0.2-0.8-0.3l0,0l0.1-1.9
		c0.2,0.1,0.5,0.2,0.8,0.3l0,0c0.2,0.1,0.5,0.1,0.8,0.2c0.3,0.1,0.6,0.1,0.9,0.1l0,0c0.5,0,1-0.1,1.2-0.3c0.3-0.2,0.5-0.4,0.6-0.6
		c0.1-0.2,0.2-0.5,0.2-0.7c0-0.2,0-0.4,0-0.5l0,0c0,0-0.1,0.1-0.1,0.2c-0.1,0.1-0.2,0.3-0.4,0.4c-0.2,0.2-0.4,0.3-0.7,0.4
		c-0.3,0.1-0.6,0.2-1,0.2l0,0c-0.4,0-0.8-0.1-1.2-0.2c-0.4-0.1-0.8-0.3-1.1-0.6S18.2-66,18-66.5c-0.2-0.5-0.3-1.1-0.3-1.8l0,0
		c0-0.7,0.1-1.3,0.3-1.8c0.2-0.5,0.4-0.9,0.7-1.2c0.3-0.3,0.7-0.5,1.1-0.6c0.4-0.1,0.9-0.2,1.3-0.2l0,0c0.5,0,0.9,0.1,1.2,0.2
		c0.3,0.2,0.6,0.3,0.7,0.5c0.2,0.2,0.3,0.4,0.4,0.5c0.1,0.2,0.1,0.2,0.1,0.2l0,0L23.6-71.8z M23.3-68.3L23.3-68.3
		c0-0.3,0-0.6-0.1-0.8c-0.1-0.2-0.2-0.4-0.3-0.6c-0.1-0.1-0.3-0.2-0.5-0.3s-0.4-0.1-0.6-0.1l0,0c-0.2,0-0.4,0-0.6,0.1
		c-0.2,0.1-0.3,0.2-0.5,0.3c-0.1,0.2-0.3,0.3-0.3,0.6c-0.1,0.2-0.1,0.5-0.1,0.8l0,0c0,0.3,0,0.6,0.1,0.8c0.1,0.2,0.2,0.4,0.3,0.6
		c0.1,0.1,0.3,0.3,0.5,0.3c0.2,0.1,0.4,0.1,0.6,0.1l0,0c0.2,0,0.4,0,0.6-0.1s0.4-0.2,0.5-0.3c0.1-0.1,0.3-0.3,0.3-0.6
		C23.3-67.7,23.3-68,23.3-68.3z M31.2-72L31.2-72c0.4,0,0.9,0.1,1.4,0.2c0.5,0.1,1,0.3,1.4,0.6c0.4,0.3,0.8,0.7,1.1,1.2
		c0.3,0.5,0.4,1.1,0.4,1.9l0,0c0,0.8-0.1,1.4-0.4,1.9c-0.3,0.5-0.7,0.9-1.1,1.2c-0.4,0.3-0.9,0.5-1.4,0.6c-0.5,0.1-1,0.2-1.4,0.2
		l0,0c-0.4,0-0.9-0.1-1.4-0.2c-0.5-0.1-1-0.3-1.4-0.6c-0.4-0.3-0.8-0.7-1.1-1.2c-0.3-0.5-0.4-1.1-0.4-1.9l0,0c0-0.5,0.1-0.9,0.2-1.3
		c0.1-0.4,0.3-0.7,0.5-1c0.2-0.3,0.5-0.5,0.8-0.7c0.3-0.2,0.6-0.4,0.9-0.5c0.3-0.1,0.6-0.2,0.9-0.2C30.7-72,31-72,31.2-72z
		 M31.2-66.1L31.2-66.1c0.5,0,0.9-0.1,1.2-0.4c0.3-0.3,0.4-0.8,0.4-1.6l0,0c0-0.8-0.1-1.3-0.4-1.6c-0.3-0.3-0.7-0.5-1.2-0.5l0,0
		c-0.5,0-0.9,0.2-1.2,0.5c-0.3,0.3-0.4,0.9-0.4,1.6l0,0c0,0.7,0.1,1.3,0.4,1.6C30.3-66.3,30.7-66.1,31.2-66.1z M41.8-71.9L41.8-71.9
		c-0.1,0-0.3-0.1-0.5-0.1c-0.2,0-0.4,0-0.5,0.1c-0.2,0.1-0.3,0.1-0.4,0.3c-0.1,0.1-0.2,0.3-0.2,0.6l0,0H42l-0.2,1.8h-1.6v4.7h-2.5
		v-4.7h-1.5l0-1.8h1.5l0-0.5c0-0.4,0.1-0.7,0.3-1c0.2-0.3,0.4-0.5,0.7-0.7s0.6-0.3,0.9-0.4c0.3-0.1,0.6-0.1,1-0.1l0,0
		c0.2,0,0.4,0,0.6,0c0.2,0,0.3,0,0.5,0l0,0c0.2,0,0.3,0,0.4,0.1l0,0L41.8-71.9z M48.1-71.8h2.5c-0.5,1.3-0.9,2.5-1.3,3.5
		c-0.4,1-0.7,1.8-1,2.6c-0.3,0.7-0.6,1.3-0.8,1.8c-0.2,0.5-0.5,0.8-0.7,1.1c-0.2,0.3-0.4,0.5-0.7,0.7c-0.2,0.1-0.4,0.3-0.7,0.3l0,0
		c-0.2,0-0.4,0.1-0.6,0.1c-0.2,0-0.5,0-0.7,0c-0.2,0-0.4,0-0.6,0c-0.2,0-0.2,0-0.2,0l0,0l0-1.9l0.8,0c0.3,0,0.5-0.1,0.6-0.2
		c0.1-0.1,0.3-0.2,0.3-0.4l0,0c0.1-0.1,0.2-0.3,0.2-0.5l0,0l-3-7.1H45l1.6,4.8L48.1-71.8z"/>
</g>
<g id="c703508d-e249-408f-a8af-6b76ad39c823" transform="matrix(1.5029032203504815,0,0,1.5029032203504815,30.312285692559655,74.85483898247591)">
	<path class="st0" d="M0-75.2"/>
</g>
</svg>
