<svg data-v-423bf9ae="" xmlns="http://www.w3.org/2000/svg" viewBox="0 0 251.6465417852697 163" class="iconAbove"><!----><!----><!----><g data-v-423bf9ae="" id="b07a0982-1293-4743-bf59-79309bfd62e1" fill="black" transform="matrix(4.531722132721215,0,0,4.531722132721215,-2.084595204598031,87.77340969114643)"><path d="M5.21 13.58L7.10 13.58C6.99 12.75 6.96 12.25 6.96 11.69L6.96 9.28C6.96 8.88 6.94 8.48 6.92 8.13C6.80 6.85 6.02 5.94 3.93 5.94C2.16 5.94 0.80 6.89 0.74 8.57L2.62 8.55C2.67 7.74 3.09 7.29 3.86 7.29C4.62 7.29 4.96 7.67 5.01 8.19C5.04 8.44 5.04 8.67 5.04 8.89L5.04 9.04L4.56 9.04C1.86 9.04 0.46 9.97 0.46 11.61C0.46 13.02 1.57 13.78 2.86 13.78C3.56 13.78 4.19 13.64 4.70 13.29L5.07 12.49ZM3.60 12.42C2.91 12.42 2.46 12.11 2.46 11.45C2.46 10.47 3.50 10.12 5.04 10.23L5.04 10.84C5.04 11.87 4.38 12.42 3.60 12.42ZM11.41 5.94C9.63 5.94 8.46 6.80 8.46 8.23C8.46 9.52 9.41 10.12 10.79 10.47C12.08 10.79 12.57 11.12 12.57 11.69C12.57 12.24 12.10 12.50 11.48 12.50C10.81 12.50 10.25 12.12 10.09 11.31L8.16 11.31C8.37 12.99 9.65 13.78 11.45 13.78C13.16 13.78 14.52 13.05 14.52 11.55C14.52 10.18 13.62 9.56 12.10 9.17C10.86 8.86 10.40 8.57 10.40 8.01C10.40 7.55 10.71 7.21 11.28 7.21C11.93 7.21 12.31 7.60 12.43 8.29L14.36 8.29C14.20 6.93 13.19 5.94 11.41 5.94ZM22.95 6.13L21.01 6.13L21.01 7.13L20.52 6.36C20.15 6.09 19.39 5.94 18.77 5.94C16.86 5.94 15.20 7.24 15.20 9.94C15.20 12.12 16.51 13.62 18.61 13.62C19.36 13.62 20.03 13.43 20.45 13.10L21.01 12.28L21.01 12.46C21.01 12.78 21.01 13.09 21 13.37C20.93 14.56 20.20 15.16 19.01 15.16C18.02 15.16 17.37 14.73 17.29 14.04L17.28 13.92L15.40 13.92L15.41 14.06C15.58 15.69 16.80 16.60 18.98 16.60C21.34 16.60 22.85 15.48 22.93 13.16C22.95 12.75 22.95 12.18 22.95 11.72ZM19.08 12.26C17.93 12.26 17.21 11.30 17.21 9.77C17.21 8.06 18.03 7.29 19.15 7.29C20.05 7.29 21.01 7.90 21.01 9.58L21.01 9.79C21.01 11.61 20.15 12.26 19.08 12.26ZM28.10 5.94C25.62 5.94 24.23 7.59 24.23 9.86C24.23 12.11 25.62 13.78 28.10 13.78C30.58 13.78 31.96 12.11 31.96 9.86C31.96 7.59 30.58 5.94 28.10 5.94ZM28.10 12.42C26.94 12.42 26.24 11.45 26.24 9.86C26.24 8.25 26.94 7.29 28.10 7.29C29.26 7.29 29.96 8.25 29.96 9.86C29.96 11.45 29.26 12.42 28.10 12.42ZM37.02 5.95C36.60 5.95 36.11 6.12 35.74 6.45L35.15 7.49L35.15 6.13L33.22 6.13L33.22 13.58L35.15 13.58L35.15 10.16C35.15 8.16 35.95 7.45 37.56 7.56L37.56 6.01C37.39 5.96 37.24 5.95 37.02 5.95ZM39.51 3.36C38.88 3.36 38.44 3.78 38.44 4.38C38.44 5.00 38.88 5.40 39.51 5.40C40.14 5.40 40.57 5.00 40.57 4.38C40.57 3.78 40.14 3.36 39.51 3.36ZM40.47 13.58L40.47 6.13L38.54 6.13L38.54 13.58ZM44.93 5.94C43.15 5.94 41.97 6.80 41.97 8.23C41.97 9.52 42.92 10.12 44.31 10.47C45.60 10.79 46.09 11.12 46.09 11.69C46.09 12.24 45.61 12.50 45.00 12.50C44.32 12.50 43.76 12.12 43.61 11.31L41.68 11.31C41.89 12.99 43.16 13.78 44.97 13.78C46.68 13.78 48.03 13.05 48.03 11.55C48.03 10.18 47.14 9.56 45.61 9.17C44.38 8.86 43.92 8.57 43.92 8.01C43.92 7.55 44.23 7.21 44.80 7.21C45.44 7.21 45.82 7.60 45.95 8.29L47.88 8.29C47.71 6.93 46.70 5.94 44.93 5.94ZM55.99 9.70C55.99 7.67 54.78 5.94 52.50 5.94C50.22 5.94 48.72 7.60 48.72 9.88C48.72 12.50 50.30 13.78 52.35 13.78C54.10 13.78 55.50 12.89 55.87 11.16L53.94 11.16C53.82 11.96 53.21 12.42 52.39 12.42C51.49 12.42 50.79 11.93 50.67 10.36L55.96 10.36C55.99 10.11 55.99 9.88 55.99 9.70ZM52.42 7.29C53.34 7.29 53.87 7.92 54.00 9.10L50.72 9.10C50.89 7.87 51.52 7.29 52.42 7.29Z"></path></g><!----><g data-v-423bf9ae="" id="30b71db7-2a55-4784-96f6-de24bed81487" transform="matrix(2.3735429542284607,0,0,2.3735429542284607,7.3228470489264055,-73.63752013365665)" stroke="none" fill="black"><path d="M23.545 51.412c6.389-.23 12.777-.461 19.166-.69-1.191-1.97-1.489-3.692-3.767-3.989l-10.225-1.332-19.836-2.584c.593.956 9.845 8.768 14.662 8.595zM0 31.042c2.07 3.421 12.547 10.877 15.536 11.261 8.17 1.052 16.339 2.103 24.509 3.153-1.6-2.644-1.971-4.408-4.861-5.167l-12.596-3.311L0 31.042zM29.752 57.642l14.729-3.141c-.956-1.577-.959-2.526-2.747-2.446l-8.708.388-16.042.716c.6.644 8.917 5.303 12.768 4.483zM41.337 68.959c2.699-1.754 3.424-3.641 4.959-6.51 1.722-3.217.593-3.697-1.33-6.881-.196-.324-2.754.109-3.042.427-.352.386-.117 2.571-.139 3.062l-.448 9.902zM40.709 56.34c-1.789.382-4.057.091-4.513 1.994l-1.942 8.113c4.359-1.041 6.304-6.272 6.455-10.107zM35.201 57.601c-4.313.921-4.223 2.174-6.072 6.214 2.933-.279 5.669-3.47 6.072-6.214zM91.116 42.816L71.279 45.4c-3.408.444-6.816.889-10.225 1.332-2.276.297-2.575 2.02-3.766 3.989 6.389.229 12.777.46 19.166.69 4.817.174 14.069-7.638 14.662-8.595zM77.413 36.978l-12.597 3.311c-2.89.759-3.262 2.523-4.86 5.167l24.508-3.153c2.989-.384 13.467-7.84 15.536-11.261l-22.587 5.936zM83.017 53.158l-16.042-.716-8.709-.388c-1.788-.08-1.79.869-2.746 2.446l14.729 3.141c3.849.821 12.166-3.838 12.768-4.483zM58.215 59.058c-.022-.491.213-2.677-.139-3.062-.289-.317-2.846-.751-3.042-.427-1.924 3.184-3.052 3.664-1.33 6.881 1.535 2.869 2.259 4.756 4.959 6.51l-.448-9.902zM65.745 66.447l-1.942-8.113c-.455-1.903-2.724-1.612-4.512-1.994.15 3.835 2.096 9.066 6.454 10.107zM70.871 63.814c-1.851-4.04-1.76-5.293-6.072-6.214.403 2.745 3.139 5.936 6.072 6.214z"></path></g><!----></svg>