<svg data-v-fde0c5aa="" xmlns="http://www.w3.org/2000/svg" viewBox="0 0 300 300" class="font"><!----><defs data-v-fde0c5aa=""><!----></defs><rect data-v-fde0c5aa="" fill="#FFFFFF" x="0" y="0" width="300px" height="300px" class="logo-background-square"></rect><defs data-v-fde0c5aa=""><!----></defs><g data-v-fde0c5aa="" id="98213a9a-f45b-4773-8330-afbc568bd71e" fill="#000000" transform="matrix(3.8347566579662935,0,0,3.8347566579662935,39.194701069827374,111.72912848035422)"><path d="M6.48 10.67L7.43 13.58L9.53 13.58L6.12 3.92L3.70 3.92L0.21 13.58L2.27 13.58L3.23 10.67ZM4.87 5.57L5.99 9.14L3.72 9.14ZM13.01 5.94C11.23 5.94 10.05 6.80 10.05 8.23C10.05 9.52 11.00 10.12 12.39 10.47C13.68 10.79 14.17 11.12 14.17 11.69C14.17 12.24 13.69 12.50 13.08 12.50C12.40 12.50 11.84 12.12 11.69 11.31L9.76 11.31C9.97 12.99 11.24 13.78 13.05 13.78C14.76 13.78 16.11 13.05 16.11 11.55C16.11 10.18 15.22 9.56 13.69 9.17C12.46 8.86 12.00 8.57 12.00 8.01C12.00 7.55 12.31 7.21 12.88 7.21C13.52 7.21 13.90 7.60 14.03 8.29L15.96 8.29C15.79 6.93 14.78 5.94 13.01 5.94ZM24.54 6.13L22.61 6.13L22.61 7.13L22.12 6.36C21.74 6.09 20.99 5.94 20.37 5.94C18.45 5.94 16.80 7.24 16.80 9.94C16.80 12.12 18.10 13.62 20.20 13.62C20.96 13.62 21.63 13.43 22.05 13.10L22.61 12.28L22.61 12.46C22.61 12.78 22.61 13.09 22.60 13.37C22.53 14.56 21.80 15.16 20.61 15.16C19.61 15.16 18.97 14.73 18.89 14.04L18.87 13.92L17.00 13.92L17.01 14.06C17.18 15.69 18.40 16.60 20.58 16.60C22.93 16.60 24.44 15.48 24.53 13.16C24.54 12.75 24.54 12.18 24.54 11.72ZM20.68 12.26C19.53 12.26 18.80 11.30 18.80 9.77C18.80 8.06 19.63 7.29 20.75 7.29C21.64 7.29 22.61 7.90 22.61 9.58L22.61 9.79C22.61 11.61 21.74 12.26 20.68 12.26ZM29.69 5.94C27.22 5.94 25.83 7.59 25.83 9.86C25.83 12.11 27.22 13.78 29.69 13.78C32.17 13.78 33.56 12.11 33.56 9.86C33.56 7.59 32.17 5.94 29.69 5.94ZM29.69 12.42C28.53 12.42 27.83 11.45 27.83 9.86C27.83 8.25 28.53 7.29 29.69 7.29C30.86 7.29 31.56 8.25 31.56 9.86C31.56 11.45 30.86 12.42 29.69 12.42ZM38.61 5.95C38.19 5.95 37.70 6.12 37.34 6.45L36.75 7.49L36.75 6.13L34.82 6.13L34.82 13.58L36.75 13.58L36.75 10.16C36.75 8.16 37.55 7.45 39.16 7.56L39.16 6.01C38.99 5.96 38.84 5.95 38.61 5.95ZM41.10 3.36C40.47 3.36 40.04 3.78 40.04 4.38C40.04 5.00 40.47 5.40 41.10 5.40C41.73 5.40 42.17 5.00 42.17 4.38C42.17 3.78 41.73 3.36 41.10 3.36ZM42.07 13.58L42.07 6.13L40.14 6.13L40.14 13.58ZM46.52 5.94C44.74 5.94 43.57 6.80 43.57 8.23C43.57 9.52 44.52 10.12 45.91 10.47C47.19 10.79 47.68 11.12 47.68 11.69C47.68 12.24 47.21 12.50 46.59 12.50C45.92 12.50 45.36 12.12 45.21 11.31L43.27 11.31C43.48 12.99 44.76 13.78 46.56 13.78C48.27 13.78 49.63 13.05 49.63 11.55C49.63 10.18 48.73 9.56 47.21 9.17C45.98 8.86 45.51 8.57 45.51 8.01C45.51 7.55 45.82 7.21 46.40 7.21C47.04 7.21 47.42 7.60 47.54 8.29L49.48 8.29C49.31 6.93 48.30 5.94 46.52 5.94ZM57.58 9.70C57.58 7.67 56.38 5.94 54.10 5.94C51.81 5.94 50.32 7.60 50.32 9.88C50.32 12.50 51.90 13.78 53.94 13.78C55.69 13.78 57.09 12.89 57.47 11.16L55.54 11.16C55.41 11.96 54.81 12.42 53.98 12.42C53.09 12.42 52.39 11.93 52.26 10.36L57.55 10.36C57.58 10.11 57.58 9.88 57.58 9.70ZM54.01 7.29C54.94 7.29 55.47 7.92 55.59 9.10L52.32 9.10C52.49 7.87 53.12 7.29 54.01 7.29Z"></path></g><!----><!----></svg>