<svg data-v-fde0c5aa="" xmlns="http://www.w3.org/2000/svg" viewBox="0 0 300 300" class="iconLeft"><!----><defs data-v-fde0c5aa=""><!----></defs><rect data-v-fde0c5aa="" fill="transparent" x="0" y="0" width="300px" height="300px" class="logo-background-square"></rect><defs data-v-fde0c5aa=""><!----></defs><g data-v-fde0c5aa="" id="30f6d993-04a4-4190-8852-7dfbe4a7cd4c" fill="#000000" transform="matrix(1.505711754203242,0,0,1.505711754203242,183.7507586060723,138.9819542457976)"><path d="M7.36 10.50L6.58 8.55L3.43 8.55L2.65 10.50L0.11 10.50L3.35 1.34L6.68 1.34L10.09 10.50L7.36 10.50ZM3.93 6.83L5.98 6.83Q5.98 6.83 5.94 6.64Q5.89 6.45 5.82 6.15Q5.75 5.84 5.66 5.44Q5.56 5.04 5.45 4.64Q5.35 4.24 5.24 3.88Q5.12 3.51 5.03 3.25L5.03 3.25Q4.73 4.26 4.48 5.04L4.48 5.04Q4.37 5.38 4.27 5.70Q4.17 6.02 4.09 6.27Q4.02 6.52 3.98 6.68Q3.93 6.83 3.93 6.83L3.93 6.83ZM13.93 3.02L13.93 3.02Q14.60 3.02 15.29 3.21Q15.99 3.39 16.66 3.81L16.66 3.81L15.81 5.21Q15.69 5.14 15.46 5.03Q15.22 4.93 14.93 4.84Q14.64 4.75 14.33 4.69Q14.01 4.63 13.76 4.66Q13.51 4.69 13.35 4.82Q13.19 4.94 13.19 5.22L13.19 5.22Q13.19 5.43 13.52 5.57Q13.85 5.71 14.27 5.85L14.27 5.85Q14.69 5.98 15.13 6.16Q15.58 6.34 15.95 6.62Q16.32 6.90 16.56 7.31Q16.80 7.73 16.80 8.33L16.80 8.33Q16.80 8.95 16.55 9.39Q16.31 9.83 15.90 10.11Q15.50 10.39 14.95 10.53Q14.41 10.67 13.82 10.67L13.82 10.67Q13.01 10.67 12.15 10.44Q11.30 10.22 10.63 9.65L10.63 9.65L11.49 8.16Q11.65 8.33 11.92 8.48Q12.19 8.64 12.51 8.75Q12.82 8.86 13.16 8.92Q13.50 8.97 13.76 8.95Q14.03 8.92 14.20 8.81Q14.38 8.69 14.38 8.46L14.38 8.46Q14.38 8.13 14.13 7.94Q13.87 7.74 13.50 7.59Q13.12 7.45 12.67 7.31Q12.22 7.17 11.84 6.93Q11.47 6.69 11.21 6.31Q10.96 5.94 10.96 5.33L10.96 5.33Q10.96 4.73 11.21 4.30Q11.47 3.86 11.89 3.58Q12.31 3.29 12.84 3.16Q13.37 3.02 13.93 3.02ZM23.62 3.25L25.73 3.25L25.73 9.86Q25.73 10.54 25.52 11.16Q25.31 11.79 24.79 12.26Q24.28 12.73 23.42 13.01Q22.55 13.29 21.24 13.29L21.24 13.29Q20.69 13.29 20.20 13.21Q19.71 13.13 19.35 13.03L19.35 13.03Q18.91 12.92 18.54 12.77L18.54 12.77L18.68 10.91Q19.05 11.06 19.47 11.17L19.47 11.17Q19.84 11.28 20.29 11.36Q20.75 11.44 21.24 11.44L21.24 11.44Q22.05 11.44 22.49 11.16Q22.93 10.89 23.14 10.52Q23.34 10.15 23.37 9.79Q23.39 9.42 23.39 9.25L23.39 9.25Q23.39 9.25 23.24 9.44Q23.09 9.63 22.80 9.87Q22.51 10.11 22.08 10.30Q21.64 10.50 21.08 10.50L21.08 10.50Q20.45 10.50 19.85 10.31Q19.24 10.12 18.75 9.68Q18.26 9.24 17.96 8.53Q17.65 7.81 17.65 6.78L17.65 6.78Q17.65 5.74 17.93 5.03Q18.20 4.31 18.67 3.87Q19.14 3.43 19.76 3.23Q20.38 3.04 21.08 3.04L21.08 3.04Q21.81 3.04 22.27 3.27Q22.74 3.50 23.00 3.78Q23.25 4.06 23.35 4.29Q23.45 4.52 23.45 4.52L23.45 4.52L23.62 3.25ZM23.30 6.76L23.30 6.76Q23.30 6.27 23.17 5.92Q23.04 5.57 22.83 5.35Q22.62 5.14 22.34 5.04Q22.06 4.94 21.77 4.94L21.77 4.94Q21.48 4.94 21.20 5.04Q20.93 5.14 20.72 5.36Q20.51 5.59 20.38 5.93Q20.26 6.27 20.26 6.76L20.26 6.76Q20.26 7.25 20.38 7.59Q20.51 7.94 20.72 8.15Q20.93 8.37 21.20 8.47Q21.48 8.57 21.77 8.57L21.77 8.57Q22.06 8.57 22.34 8.47Q22.62 8.37 22.83 8.15Q23.04 7.94 23.17 7.59Q23.30 7.25 23.30 6.76ZM31.25 3.04L31.25 3.04Q31.88 3.04 32.63 3.21Q33.39 3.39 34.04 3.83Q34.69 4.27 35.13 5.01Q35.56 5.75 35.56 6.89L35.56 6.89Q35.56 8.02 35.13 8.75Q34.69 9.48 34.04 9.90Q33.39 10.32 32.63 10.49Q31.88 10.65 31.25 10.65L31.25 10.65Q30.62 10.65 29.88 10.49Q29.13 10.32 28.50 9.90Q27.86 9.48 27.43 8.75Q26.99 8.02 26.99 6.89L26.99 6.89Q26.99 6.13 27.20 5.56Q27.40 4.98 27.73 4.56Q28.06 4.13 28.50 3.84Q28.94 3.54 29.41 3.37Q29.88 3.19 30.35 3.12Q30.83 3.04 31.25 3.04ZM31.25 8.90L31.25 8.90Q32.02 8.90 32.47 8.46Q32.91 8.01 32.91 6.89L32.91 6.89Q32.91 5.75 32.47 5.27Q32.03 4.79 31.25 4.79L31.25 4.79Q30.46 4.79 30.05 5.27Q29.64 5.75 29.64 6.89L29.64 6.89Q29.64 8.01 30.05 8.46Q30.46 8.90 31.25 8.90ZM41.83 3.19L41.83 3.19Q41.62 3.14 41.34 3.13Q41.06 3.12 40.81 3.21Q40.56 3.29 40.38 3.49Q40.21 3.70 40.21 4.05L40.21 4.05L41.97 4.05L41.76 5.81L40.19 5.81L40.19 10.50L37.69 10.50L37.69 5.81L36.16 5.81L36.18 4.05L37.73 4.05L37.74 3.51Q37.77 2.91 38.04 2.50Q38.30 2.09 38.71 1.83Q39.12 1.57 39.61 1.46Q40.10 1.34 40.56 1.34L40.56 1.34Q40.87 1.34 41.13 1.36Q41.40 1.37 41.59 1.40L41.59 1.40Q41.83 1.43 42.03 1.46L42.03 1.46L41.83 3.19ZM48.10 3.22L50.64 3.22Q49.88 5.21 49.31 6.69Q48.73 8.18 48.27 9.25Q47.81 10.32 47.45 11.03Q47.10 11.73 46.76 12.17Q46.42 12.61 46.10 12.84Q45.78 13.06 45.40 13.17L45.40 13.17Q45.16 13.24 44.82 13.27Q44.48 13.29 44.15 13.29Q43.82 13.30 43.60 13.29Q43.37 13.29 43.37 13.29L43.37 13.29L43.39 11.37L44.17 11.35Q44.56 11.35 44.79 11.20Q45.01 11.05 45.12 10.85L45.12 10.85Q45.26 10.63 45.29 10.35L45.29 10.35L42.32 3.22L45.00 3.22L46.58 7.99L48.10 3.22Z"></path></g><defs data-v-fde0c5aa=""><!----></defs><g data-v-fde0c5aa="" id="ba29b25b-139f-4ec9-aefa-a1ab4c68446e" stroke="none" fill="#E38028" transform="matrix(1.5029032203504815,0,0,1.5029032203504815,30.312285692559655,74.85483898247591)"><path d="M35.318 41.017H6.446l6.451 4.253 23.108-2.02a.266.266 0 01.072.528l-20.146 3.71 4.98 3.646 18.053-4.135a22.549 22.549 0 01-3.646-5.982zM29.096 57.131l.118.085c1.708 1.178 3.626 1.765 5.772 1.766 3.687.002 8.068-1.763 13.115-5.323a28.568 28.568 0 01-3.93-2.124l-15.075 5.596zM40.172 48.318L23.1 52.74l4.011 2.944 15.573-5.187a23.742 23.742 0 01-2.512-2.179zM63.996 43.25l23.108 2.02 6.451-4.253H64.682a22.624 22.624 0 01-3.645 5.982l18.053 4.135 4.981-3.646-20.147-3.71a.266.266 0 01.072-.528zM51.899 53.66c5.047 3.561 9.428 5.326 13.115 5.323 2.146-.001 4.064-.589 5.772-1.766l.118-.085-15.075-5.595a28.731 28.731 0 01-3.93 2.123zM57.316 50.496l15.573 5.187L76.9 52.74l-17.072-4.422a23.62 23.62 0 01-2.512 2.178z"></path></g><!----></svg>