<?xml version="1.0" encoding="utf-8"?>
<!-- Generator: Adobe Illustrator 25.3.0, SVG Export Plug-In . SVG Version: 6.00 Build 0)  -->
<svg version="1.1" id="Layer_1" xmlns="http://www.w3.org/2000/svg" xmlns:xlink="http://www.w3.org/1999/xlink" x="0px" y="0px"
	 viewBox="0 0 243.1 63.8" style="enable-background:new 0 0 243.1 63.8;" xml:space="preserve">
<style type="text/css">
	.st0{fill:#FFFFFF;stroke:#FFFFFF;stroke-miterlimit:10;}
	.st1{fill:#87544E;}
</style>
<rect x="-3.2" y="-2.1" width="248" height="66"/>
<g id="_x37_6cc73be-b7c7-488d-8066-91a814be35e2" transform="matrix(1.8861703135879415,0,0,1.8861703135879415,151.3943081473454,131.17602023441648)">
	<path class="st0" d="M-9.6-51.9l1,2.9h2.1l-3.4-9.7h-2.4l-3.5,9.7h2.1l1-2.9H-9.6z M-11.2-57l1.1,3.6h-2.3L-11.2-57z M-3-56.7
		c-1.8,0-3,0.9-3,2.3c0,1.3,0.9,1.9,2.3,2.2c1.3,0.3,1.8,0.6,1.8,1.2c0,0.5-0.5,0.8-1.1,0.8c-0.7,0-1.2-0.4-1.4-1.2h-1.9
		c0.2,1.7,1.5,2.5,3.3,2.5c1.7,0,3.1-0.7,3.1-2.2c0-1.4-0.9-2-2.4-2.4C-3.6-53.7-4-54-4-54.6c0-0.5,0.3-0.8,0.9-0.8
		c0.6,0,1,0.4,1.1,1.1h1.9C-0.2-55.7-1.3-56.7-3-56.7z M8.5-56.5H6.6v1l-0.5-0.8c-0.4-0.3-1.1-0.4-1.8-0.4c-1.9,0-3.6,1.3-3.6,4
		c0,2.2,1.3,3.7,3.4,3.7c0.8,0,1.4-0.2,1.8-0.5l0.6-0.8v0.2c0,0.3,0,0.6,0,0.9c-0.1,1.2-0.8,1.8-2,1.8c-1,0-1.6-0.4-1.7-1.1l0-0.1H1
		l0,0.1C1.1-46.9,2.4-46,4.5-46c2.4,0,3.9-1.1,4-3.4c0-0.4,0-1,0-1.4V-56.5z M4.6-50.3c-1.1,0-1.9-1-1.9-2.5c0-1.7,0.8-2.5,2-2.5
		c0.9,0,1.9,0.6,1.9,2.3v0.2C6.6-51,5.7-50.3,4.6-50.3z M13.7-56.7c-2.5,0-3.9,1.7-3.9,3.9c0,2.2,1.4,3.9,3.9,3.9
		c2.5,0,3.9-1.7,3.9-3.9C17.5-55,16.1-56.7,13.7-56.7z M13.7-50.2c-1.2,0-1.9-1-1.9-2.6c0-1.6,0.7-2.6,1.9-2.6c1.2,0,1.9,1,1.9,2.6
		C15.5-51.2,14.8-50.2,13.7-50.2z M22.6-56.7c-0.4,0-0.9,0.2-1.3,0.5l-0.6,1v-1.4h-1.9v7.5h1.9v-3.4c0-2,0.8-2.7,2.4-2.6v-1.5
		C23-56.6,22.8-56.7,22.6-56.7z M25.1-59.2c-0.6,0-1.1,0.4-1.1,1c0,0.6,0.4,1,1.1,1c0.6,0,1.1-0.4,1.1-1
		C26.1-58.8,25.7-59.2,25.1-59.2z M26-49v-7.5h-1.9v7.5H26z M30.5-56.7c-1.8,0-3,0.9-3,2.3c0,1.3,1,1.9,2.3,2.2
		c1.3,0.3,1.8,0.6,1.8,1.2c0,0.5-0.5,0.8-1.1,0.8c-0.7,0-1.2-0.4-1.4-1.2h-1.9c0.2,1.7,1.5,2.5,3.3,2.5c1.7,0,3.1-0.7,3.1-2.2
		c0-1.4-0.9-2-2.4-2.4c-1.2-0.3-1.7-0.6-1.7-1.2c0-0.5,0.3-0.8,0.9-0.8c0.6,0,1,0.4,1.1,1.1h1.9C33.3-55.7,32.3-56.7,30.5-56.7z
		 M41.5-52.9c0-2-1.2-3.8-3.5-3.8c-2.3,0-3.8,1.7-3.8,3.9c0,2.6,1.6,3.9,3.6,3.9c1.8,0,3.2-0.9,3.5-2.6h-1.9
		c-0.1,0.8-0.7,1.3-1.6,1.3c-0.9,0-1.6-0.5-1.7-2.1h5.3C41.5-52.5,41.5-52.7,41.5-52.9z M38-55.3c0.9,0,1.5,0.6,1.6,1.8h-3.3
		C36.5-54.7,37.1-55.3,38-55.3z"/>
</g>
<g id="_x34_b2ec138-abf2-487f-af5a-ae38a1ab1dca" transform="matrix(0.9879039639182922,0,0,0.9879039639182922,40,100.60381444279334)">
	<path class="st1" d="M-7.1-68.1c6.4-0.2,12.8-0.5,19.2-0.7c-1.2-2-1.5-3.7-3.8-4l-10.2-1.3l-19.8-2.6
		C-21.1-75.8-11.9-67.9-7.1-68.1z M-30.6-88.5c2.1,3.4,12.5,10.9,15.5,11.3c8.2,1.1,16.3,2.1,24.5,3.2c-1.6-2.6-2-4.4-4.9-5.2
		L-8-82.5L-30.6-88.5z M-0.9-61.9L13.9-65c-1-1.6-1-2.5-2.7-2.4l-8.7,0.4l-16,0.7C-13-65.7-4.7-61.1-0.9-61.9z M10.7-50.6
		c2.7-1.8,3.4-3.6,5-6.5c1.7-3.2,0.6-3.7-1.3-6.9c-0.2-0.3-2.8,0.1-3,0.4c-0.4,0.4-0.1,2.6-0.1,3.1C11.2-60.5,10.7-50.6,10.7-50.6z
		 M10.1-63.2c-1.8,0.4-4.1,0.1-4.5,2l-1.9,8.1C8-54.1,9.9-59.4,10.1-63.2z M4.6-61.9c-4.3,0.9-4.2,2.2-6.1,6.2
		C1.5-56,4.2-59.2,4.6-61.9z M60.5-76.7l-19.8,2.6c-3.4,0.4-6.8,0.9-10.2,1.3c-2.3,0.3-2.6,2-3.8,4c6.4,0.2,12.8,0.5,19.2,0.7
		C50.7-67.9,59.9-75.8,60.5-76.7z M46.8-82.5l-12.6,3.3c-2.9,0.8-3.3,2.5-4.9,5.2l24.5-3.2c3-0.4,13.5-7.8,15.5-11.3
		C69.4-88.5,46.8-82.5,46.8-82.5z M52.4-66.4l-16-0.7l-8.7-0.4c-1.8-0.1-1.8,0.9-2.7,2.4l14.7,3.1C43.5-61.1,51.8-65.7,52.4-66.4z
		 M27.6-60.5c0-0.5,0.2-2.7-0.1-3.1c-0.3-0.3-2.8-0.8-3-0.4c-1.9,3.2-3.1,3.7-1.3,6.9c1.5,2.9,2.3,4.8,5,6.5
		C28.1-50.6,27.6-60.5,27.6-60.5z M35.1-53.1l-1.9-8.1c-0.5-1.9-2.7-1.6-4.5-2C28.8-59.4,30.8-54.1,35.1-53.1z M40.3-55.7
		c-1.9-4-1.8-5.3-6.1-6.2C34.6-59.2,37.3-56,40.3-55.7z"/>
</g>
</svg>
