<svg viewBox="0 0 339.80632085898236 66.602935923841" height="66.602935923841" width="339.80632085898236" style="width: 339.806px; height: 66.6029px; position: absolute; top: 50%; left: 50%; z-index: 0; cursor: pointer; overflow: visible; transform: translate(-50%, -50%) scale(0.612113);"><defs id="SvgjsDefs2713"></defs><g id="SvgjsG2714" featurekey="symbolFeature-0" transform="matrix(0.8525285694512554,0,0,0.8525285694512554,-1.3896215641403733,-11.882542966857633)" fill="#111111"><polygon xmlns="http://www.w3.org/2000/svg" points="42.021,89.823 98.369,53.589 82.566,61.219 82.574,61.292 82.527,61.238 82.264,61.365 82.281,61.389 "></polygon><polygon xmlns="http://www.w3.org/2000/svg" points="79.395,61.174 38.895,57.391 36.811,91.25 "></polygon><polygon xmlns="http://www.w3.org/2000/svg" points="3.71,38.712 34.918,92.062 37.066,57.146 "></polygon><polygon xmlns="http://www.w3.org/2000/svg" points="95.209,45.172 80.775,27.29 79.232,32.516 95.928,46.175 "></polygon><polygon xmlns="http://www.w3.org/2000/svg" points="98.135,50.979 79.758,35.645 82.281,58.632 "></polygon><polygon xmlns="http://www.w3.org/2000/svg" points="61.512,33.498 79.758,54.504 77.424,33.356 "></polygon><polygon xmlns="http://www.w3.org/2000/svg" points="59.756,34.836 39.467,54.979 80.432,58.808 "></polygon><polygon xmlns="http://www.w3.org/2000/svg" points="58.445,33.191 36.674,27.365 38.974,52.971 "></polygon><polygon xmlns="http://www.w3.org/2000/svg" points="37.133,54.393 34.822,28.537 6.776,37.639 "></polygon><polygon xmlns="http://www.w3.org/2000/svg" points="8.923,35.031 34.527,26.292 25.659,19.867 "></polygon><polygon xmlns="http://www.w3.org/2000/svg" points="1.63,26.184 3.25,37.485 20.957,21.022 "></polygon><polygon xmlns="http://www.w3.org/2000/svg" points="28.355,14.604 7.837,21.987 26.101,17.109 "></polygon><polygon xmlns="http://www.w3.org/2000/svg" points="36.751,24.86 60.131,31.196 77.148,30.907 78.672,25.749 67.951,19.853 48.173,14.486 32.256,13.938 28.073,18.586   "></polygon></g><g id="SvgjsG2715" featurekey="nameLeftFeature-0" transform="matrix(2.454893517113147,0,0,2.454893517113147,101.78548454691001,0.5745509960199016)" fill="#111111"><path d="M12.909 19.6882 c0.089004 0 0.15762 0.064804 0.15762 0.15801 c0 0.089004 -0.069004 0.15381 -0.15801 0.15381 l-4.5034 0 c-0.089004 0 -0.15801 -0.064804 -0.15801 -0.15381 c0 -0.093204 0.069004 -0.15801 0.15801 -0.15801 l0.72 0 c0.402 0 0.62738 -0.303 0.47998 -0.7 l-1.239 -3.249 l-5.1044 0 l-1.2558 3.249 c-0.14 0.3616 0.08039 0.7 0.48 0.7 l0.72 0 c0.089004 0 0.15801 0.064804 0.15801 0.15801 c0 0.089004 -0.069004 0.15381 -0.15801 0.15381 l-2.9606 0 c-0.089004 0 -0.15801 -0.064804 -0.15801 -0.15381 c0 -0.093204 0.069004 -0.15801 0.15801 -0.15801 l0.48 0 c0.52 0 0.7558 -0.26 0.92 -0.7 l4.7614 -12.241 l0.37801 0 l4.7042 12.261 c0.1442 0.36 0.42 0.68 0.98 0.68 l0.44 0 z M3.3868 15.4316 l4.8658 0 l-2.4148 -6.332 z M18.1462 20.129 c-2.3166 0 -4.0752 -1.3068 -4.0752 -2.8026 c0 -0.7228 0.391 -1.1594 0.87298 -1.1594 c0.3704 0 0.8042 0.2456 0.8042 0.7642 c0 0.649 -0.7158 0.771 -0.7158 1.271 c0 0.9118 1.7248 1.5794 2.9482 1.5794 c1.9634 0 3.5116 -1.0248 3.5116 -2.8716 c0 -3.653 -7.129 -2.3648 -7.129 -6.904 c0 -1.7704 1.4062 -3.3146 4.1862 -3.3146 c2.2338 0 4.038 1.2214 4.038 2.7008 c0 0.7352 -0.391 1.1758 -0.869 1.1758 c-0.3744 0 -0.8082 -0.2496 -0.8082 -0.7682 c0 -0.6656 0.7118 -0.7546 0.7118 -1.2546 c0 -0.8994 -1.7248 -1.5062 -2.944 -1.5062 c-1.52 0 -3.1614 0.5406 -3.1614 2.5212 c0 3.2952 7.3276 2.1958 7.3276 6.9206 c0 1.6172 -1.4186 3.6482 -4.698 3.6482 z M36.08 18.9262 c-1.4724 0.7772 -3.1086 1.2027 -4.5714 1.2027 c-3.627 0 -6.4918 -2.3932 -6.4918 -6.709 c0 -4.629 3.2076 -6.729 6.3538 -6.729 c2.5008 0 4.6276 1.342 4.6276 3.2296 c0 0.947 -0.5104 1.3484 -0.99658 1.3484 c-0.458 0 -0.89602 -0.333 -0.89602 -0.8834 c0 -0.7172 0.8442 -0.87442 0.8442 -1.4468 c0 -0.9544 -1.5842 -1.8874 -3.365 -1.8874 c-2.1972 0 -4.7592 1.4744 -4.7592 6.3688 c0 4.1386 2.138 6.3234 4.9904 6.3234 c0.793 0 1.6654 -0.171 2.5612 -0.51718 l0 -4.2392 c0 -0.249 -0.1848 -0.478 -0.48202 -0.478 l-1.3938 0 c-0.093008 0 -0.15781 -0.064804 -0.15781 -0.15381 c0 -0.093204 0.064804 -0.15801 0.15781 -0.15801 l3.5786 0 l0 4.729 z M44.894400000000005 6.695 c3.7924 0 5.998 2.8256 5.998 6.6456 s-2.2056 6.7882 -5.998 6.7882 c-3.7966 0 -5.998 -2.9682 -5.998 -6.7882 s2.2014 -6.6456 5.998 -6.6456 z M44.894400000000005 19.78558 c3.0958 0 4.1888 -3.0848 4.1888 -6.4448 s-1.093 -6.302 -4.1888 -6.302 s-4.1888 2.942 -4.1888 6.302 s1.093 6.4448 4.1888 6.4448 z"></path></g><g id="SvgjsG2716" featurekey="nameRightFeature-0" transform="matrix(2.4150151494227643,0,0,2.4150151494227643,231.03394973437742,1.1091947432044407)" fill="#111111"><path d="M14.08 19.02 c0.18 0 0.28002 0.14 0.28002 0.3 c0 0.538 -0.944 0.91 -2.04 0.91 c-5.648 0 -1.468 -6.15 -6.34 -6.15 l-0.79801 0 l0.0019922 4.55 c0 0.334 0.304 0.63 0.716 0.63 l0.28 0 c0.22 0 0.38 0.16 0.38 0.36 c0 0.22 -0.16 0.38 -0.38 0.38 l-5.396 0 c-0.22 0 -0.38 -0.16 -0.38 -0.38 c0 -0.2 0.16 -0.36 0.38 -0.36 l0.28 0 c0.408 0 0.71602 -0.286 0.71602 -0.622 l-0.004004 -10.448 c0 -0.338 -0.304 -0.63 -0.716 -0.63 l-0.28 0 c-0.22 0 -0.38 -0.16 -0.38 -0.36 c0 -0.22 0.16 -0.38 0.38 -0.38 l6.62 0 c3.46 0 5.14 1.28 5.14 3.4 c0 1.678 -1.314 2.894 -3.542 3.364 c4.684 0.95 2.4 5.696 4.182 5.696 c0.46 0 0.58 -0.26 0.9 -0.26 z M5.182 13.32 l1.278 0 c1.98 0 2.46 -1.52 2.46 -2.98 c0 -1.4 -0.78 -2.78 -2.86 -2.78 l-0.164 0 c-0.408 0 -0.71602 0.292 -0.71602 0.622 z M20.439999999999998 19.26 c0.22 0 0.38 0.16 0.38 0.36 c0 0.22 -0.16 0.38 -0.38 0.38 l-5.396 0 c-0.22 0 -0.38 -0.16 -0.38 -0.38 c0 -0.2 0.16 -0.36 0.38 -0.36 l0.28 0 c0.408 0 0.71602 -0.286 0.71602 -0.622 l-0.004004 -10.448 c0 -0.338 -0.304 -0.63 -0.716 -0.63 l-0.28 0 c-0.22 0 -0.38 -0.16 -0.38 -0.36 c0 -0.22 0.16 -0.38 0.38 -0.38 l5.396 0 c0.22 0 0.38 0.16 0.38 0.38 c0 0.2 -0.16 0.36 -0.38 0.36 l-0.28 0 c-0.408 0 -0.71602 0.292 -0.71602 0.622 l0.004004 10.448 c0 0.334 0.304 0.63 0.716 0.63 l0.28 0 z M26.919999999999998 20.24 c-2.84 0 -4.9 -1.64 -4.9 -3.58 c0 -1.04 0.74 -1.54 1.46 -1.54 c0.64 0 1.28 0.42 1.28 1.24 c0 0.76 -0.7 1.12 -0.7 1.62 c0 0.88 1.36 1.5 2.52 1.5 c1.44 0 3.02 -0.66 3.02 -2.38 c0 -2.86 -7.24 -1.54 -7.24 -6.46 c0 -2.96 2.58 -4.06 5.36 -4.06 c2.44 0 4.72 1.38 4.72 3.24 c0 1.1 -0.74 1.62 -1.44 1.62 c-0.66 0 -1.3 -0.44 -1.3 -1.26 c0 -0.84 0.68 -1.04 0.68 -1.54 c0 -0.82 -1.36 -1.3 -2.5 -1.3 c-1.52 0 -2.86 0.62 -2.86 2.22 c0 2.74 7.74 1.72 7.74 6.54 c0 2.22 -2.18 4.14 -5.84 4.14 z M44.68 16.04 c0.2 0 0.36002 0.16 0.36002 0.38 l0 3.58 l-10.696 0 c-0.22 0 -0.38 -0.16 -0.38 -0.38 c0 -0.2 0.16 -0.36 0.38 -0.36 l0.28 0 c0.408 0 0.71602 -0.292 0.71602 -0.622 l-0.004004 -10.448 c0 -0.334 -0.304 -0.63 -0.716 -0.63 l-0.28 0 c-0.22 0 -0.38 -0.16 -0.38 -0.36 c0 -0.22 0.16 -0.38 0.38 -0.38 l10.7 0 l0 3.58 c0 0.22 -0.16 0.38 -0.38 0.38 c-0.2 0 -0.36 -0.16 -0.36 -0.38 l0 -0.08 c0 -1.38 -0.82 -2.76 -2.46 -2.76 l-2.384 0 c-0.408 0 -0.71602 0.286 -0.71602 0.622 l0.0019922 4.578 l0.23801 0 c1.44 0 2.16 -0.52 2.16 -1.94 l0 -0.04 c0 -0.2 0.18 -0.38 0.38 -0.38 s0.38 0.18 0.38 0.38 l0 4.74 c0 0.2 -0.18 0.38 -0.38 0.38 s-0.38 -0.16 -0.38 -0.44 l0 -0.04 c0 -1.32 -0.68 -1.88 -2.16 -1.88 l-0.23801 0 l0.0019922 5.09 c0 0.338 0.304 0.63 0.716 0.63 l2.38 0 c1.64 0 2.46 -1.38 2.46 -2.76 l0 -0.08 c0 -0.22 0.16 -0.38 0.38 -0.38 z"></path></g></svg>
