<?xml version="1.0" encoding="utf-8"?>
<!-- Generator: Adobe Illustrator 25.3.0, SVG Export Plug-In . SVG Version: 6.00 Build 0)  -->
<svg version="1.1" id="Layer_1" xmlns="http://www.w3.org/2000/svg" xmlns:xlink="http://www.w3.org/1999/xlink" x="0px" y="0px"
	 viewBox="0 0 248 66" style="enable-background:new 0 0 248 66;" xml:space="preserve">
<style type="text/css">
	.st0{fill:#FFFFFF;}
	.st1{stroke:#FFFFFF;stroke-miterlimit:10;}
	.st2{fill:#87544E;}
</style>
<rect class="st0" width="248" height="66"/>
<g id="_x37_6cc73be-b7c7-488d-8066-91a814be35e2" transform="matrix(1.8861703135879415,0,0,1.8861703135879415,151.3943081473454,131.17602023441648)">
	<path class="st1" d="M-7.8-50.8l0.9,2.9h2.1l-3.4-9.7h-2.4l-3.5,9.7h2.1l1-2.9H-7.8z M-9.4-55.9l1.1,3.6h-2.3L-9.4-55.9z
		 M-1.3-55.6c-1.8,0-3,0.9-3,2.3c0,1.3,0.9,1.9,2.3,2.2c1.3,0.3,1.8,0.7,1.8,1.2c0,0.5-0.5,0.8-1.1,0.8c-0.7,0-1.2-0.4-1.4-1.2h-1.9
		c0.2,1.7,1.5,2.5,3.3,2.5c1.7,0,3.1-0.7,3.1-2.2c0-1.4-0.9-2-2.4-2.4c-1.2-0.3-1.7-0.6-1.7-1.2c0-0.5,0.3-0.8,0.9-0.8
		c0.6,0,1,0.4,1.1,1.1h1.9C1.5-54.6,0.5-55.6-1.3-55.6z M10.2-55.4H8.3v1l-0.5-0.8c-0.4-0.3-1.1-0.4-1.8-0.4c-1.9,0-3.6,1.3-3.6,4
		c0,2.2,1.3,3.7,3.4,3.7c0.8,0,1.4-0.2,1.8-0.5l0.6-0.8v0.2c0,0.3,0,0.6,0,0.9c-0.1,1.2-0.8,1.8-2,1.8c-1,0-1.6-0.4-1.7-1.1l0-0.1
		H2.7l0,0.1c0.2,1.6,1.4,2.5,3.6,2.5c2.4,0,3.9-1.1,4-3.4c0-0.4,0-1,0-1.4V-55.4z M6.4-49.2c-1.2,0-1.9-1-1.9-2.5
		c0-1.7,0.8-2.5,2-2.5c0.9,0,1.9,0.6,1.9,2.3v0.2C8.3-49.9,7.4-49.2,6.4-49.2z M15.4-55.6c-2.5,0-3.9,1.7-3.9,3.9
		c0,2.3,1.4,3.9,3.9,3.9c2.5,0,3.9-1.7,3.9-3.9C19.2-53.9,17.9-55.6,15.4-55.6z M15.4-49.1c-1.2,0-1.9-1-1.9-2.6
		c0-1.6,0.7-2.6,1.9-2.6c1.2,0,1.9,1,1.9,2.6C17.2-50.1,16.5-49.1,15.4-49.1z M24.3-55.6c-0.4,0-0.9,0.2-1.3,0.5l-0.6,1v-1.4h-1.9
		v7.5h1.9v-3.4c0-2,0.8-2.7,2.4-2.6v-1.5C24.7-55.5,24.5-55.6,24.3-55.6z M26.8-58.1c-0.6,0-1.1,0.4-1.1,1c0,0.6,0.4,1,1.1,1
		c0.6,0,1.1-0.4,1.1-1C27.9-57.7,27.4-58.1,26.8-58.1z M27.8-47.9v-7.5h-1.9v7.5H27.8z M32.2-55.6c-1.8,0-3,0.9-3,2.3
		c0,1.3,1,1.9,2.3,2.2c1.3,0.3,1.8,0.7,1.8,1.2c0,0.5-0.5,0.8-1.1,0.8c-0.7,0-1.2-0.4-1.4-1.2H29c0.2,1.7,1.5,2.5,3.3,2.5
		c1.7,0,3.1-0.7,3.1-2.2c0-1.4-0.9-2-2.4-2.4c-1.2-0.3-1.7-0.6-1.7-1.2c0-0.5,0.3-0.8,0.9-0.8c0.6,0,1,0.4,1.1,1.1h1.9
		C35-54.6,34-55.6,32.2-55.6z M43.3-51.8c0-2-1.2-3.8-3.5-3.8c-2.3,0-3.8,1.7-3.8,3.9c0,2.6,1.6,3.9,3.6,3.9c1.8,0,3.2-0.9,3.5-2.6
		h-1.9c-0.1,0.8-0.7,1.3-1.6,1.3c-0.9,0-1.6-0.5-1.7-2.1h5.3C43.3-51.4,43.3-51.6,43.3-51.8z M39.7-54.2c0.9,0,1.5,0.6,1.6,1.8H38
		C38.2-53.6,38.8-54.2,39.7-54.2z"/>
</g>
<g id="_x34_b2ec138-abf2-487f-af5a-ae38a1ab1dca" transform="matrix(0.9879039639182922,0,0,0.9879039639182922,40,100.60381444279334)">
	<path class="st2" d="M-3.8-66c6.4-0.2,12.8-0.5,19.2-0.7c-1.2-2-1.5-3.7-3.8-4L1.4-72l-19.8-2.6C-17.9-73.6-8.6-65.8-3.8-66z
		 M-27.3-86.4c2.1,3.4,12.5,10.9,15.5,11.3C-3.6-74.1,4.5-73,12.7-72c-1.6-2.6-2-4.4-4.9-5.2l-12.6-3.3L-27.3-86.4z M2.4-59.8
		l14.7-3.1c-1-1.6-1-2.5-2.7-2.4L5.7-65l-16,0.7C-9.7-63.6-1.4-59,2.4-59.8z M14-48.5c2.7-1.8,3.4-3.6,5-6.5
		c1.7-3.2,0.6-3.7-1.3-6.9c-0.2-0.3-2.8,0.1-3,0.4c-0.4,0.4-0.1,2.6-0.1,3.1C14.5-58.4,14-48.5,14-48.5z M13.4-61.1
		c-1.8,0.4-4.1,0.1-4.5,2L6.9-51C11.3-52,13.2-57.2,13.4-61.1z M7.9-59.8c-4.3,0.9-4.2,2.2-6.1,6.2C4.7-53.9,7.5-57.1,7.9-59.8z
		 M63.8-74.6L43.9-72c-3.4,0.4-6.8,0.9-10.2,1.3c-2.3,0.3-2.6,2-3.8,4c6.4,0.2,12.8,0.5,19.2,0.7C53.9-65.8,63.2-73.6,63.8-74.6z
		 M50.1-80.4l-12.6,3.3c-2.9,0.8-3.3,2.5-4.9,5.2l24.5-3.2c3-0.4,13.5-7.8,15.5-11.3C72.7-86.4,50.1-80.4,50.1-80.4z M55.7-64.3
		l-16-0.7l-8.7-0.4c-1.8-0.1-1.8,0.9-2.7,2.4l14.7,3.1C46.8-59,55.1-63.6,55.7-64.3z M30.9-58.4c0-0.5,0.2-2.7-0.1-3.1
		c-0.3-0.3-2.8-0.8-3-0.4c-1.9,3.2-3.1,3.7-1.3,6.9c1.5,2.9,2.3,4.8,5,6.5C31.3-48.5,30.9-58.4,30.9-58.4z M38.4-51l-1.9-8.1
		c-0.5-1.9-2.7-1.6-4.5-2C32.1-57.2,34.1-52,38.4-51z M43.5-53.6c-1.9-4-1.8-5.3-6.1-6.2C37.9-57.1,40.6-53.9,43.5-53.6z"/>
</g>
</svg>
